<?xml version="1.0" encoding="UTF-8" standalone="no"?>
<!-- Created with Inkscape (http://www.inkscape.org/) -->

<svg
   xmlns:dc="http://purl.org/dc/elements/1.1/"
   xmlns:cc="http://creativecommons.org/ns#"
   xmlns:rdf="http://www.w3.org/1999/02/22-rdf-syntax-ns#"
   xmlns:svg="http://www.w3.org/2000/svg"
   xmlns="http://www.w3.org/2000/svg"
   xmlns:sodipodi="http://sodipodi.sourceforge.net/DTD/sodipodi-0.dtd"
   xmlns:inkscape="http://www.inkscape.org/namespaces/inkscape"
   id="svg2"
   version="1.1"
   inkscape:version="0.91 r13725"
   width="115.2"
   height="115.2"
   viewBox="0 0 115.2 115.2"
   sodipodi:docname="feren-themer-32.svg">
  <metadata
     id="metadata8">
    <rdf:RDF>
      <cc:Work
         rdf:about="">
        <dc:format>image/svg+xml</dc:format>
        <dc:type
           rdf:resource="http://purl.org/dc/dcmitype/StillImage" />
        <dc:title />
      </cc:Work>
    </rdf:RDF>
  </metadata>
  <defs
     id="defs6" />
  <sodipodi:namedview
     pagecolor="#ffffff"
     bordercolor="#666666"
     borderopacity="1"
     objecttolerance="10"
     gridtolerance="10"
     guidetolerance="10"
     inkscape:pageopacity="0"
     inkscape:pageshadow="2"
     inkscape:window-width="1364"
     inkscape:window-height="702"
     id="namedview4"
     showgrid="false"
     inkscape:zoom="2.0486112"
     inkscape:cx="-89.328811"
     inkscape:cy="56.623728"
     inkscape:window-x="0"
     inkscape:window-y="0"
     inkscape:window-maximized="1"
     inkscape:current-layer="a4146" />
  <g
     inkscape:groupmode="layer"
     id="layer1"
     inkscape:label="Layer 1">
    <rect
       style="fill:#ffffff;fill-opacity:1"
       id="rect4141"
       width="65.410172"
       height="70.291527"
       x="25.871185"
       y="22.942371" />
  </g>
  <g
     inkscape:groupmode="layer"
     id="layer2"
     inkscape:label="Layer 2">
    <a
       style=""
       id="a4146">
      <g
         style="fill:#006aff;fill-opacity:0.94117647"
         transform="translate(-4.5300707e-6,3.5084256e-8)"
         id="g4138">
        <path
           inkscape:connector-curvature="0"
           id="path4154"
           d="M 45,113.80757 C 29.341759,110.46362 13.886668,98.376399 6.5016976,83.698594 -2.0499566,66.701975 -2.1113987,48.845638 6.3228921,31.734065 15.993948,12.11333 35.540523,0.02660595 57.6,0.02660595 c 9.502305,0 17.331121,1.79753665 26.086351,5.98956145 C 93.198474,10.570595 104.6294,22.001522 109.18383,31.513649 123.23316,60.856297 111.9343,94.84506 83.465935,108.8771 71.220968,114.91265 58.068562,116.59849 45,113.80757 Z m 27.9,-48.771878 0,-21.364308 2.393741,3.364308 C 76.610298,48.886061 78.081244,50.4 78.56251,50.4 c 1.913768,0 6.923651,-3.796624 6.336366,-4.801869 -2.87526,-4.921535 -7.93524,-11.63984 -9.55891,-12.691687 -1.094481,-0.709028 -3.932619,-1.773374 -6.306972,-2.365213 -3.97558,-0.990968 -4.478424,-0.924427 -6.358006,0.841349 -2.689881,2.527012 -7.460095,2.527012 -10.149976,0 -1.879582,-1.765776 -2.382426,-1.832317 -6.358006,-0.841349 -2.374353,0.591839 -5.212491,1.656185 -6.306972,2.365213 -1.62367,1.051847 -6.68365,7.770152 -9.55891,12.691687 C 29.713839,46.603376 34.723722,50.4 36.63749,50.4 c 0.481266,0 1.952212,-1.513939 3.268769,-3.364308 L 42.3,43.671384 l 0,21.364308 0,21.364308 15.3,0 15.3,0 0,-21.364308 z"
           style="fill-opacity:0.94117647;fill:#006aff" />
        <path
           inkscape:connector-curvature="0"
           id="path4152"
           d="M 45.45,113.71626 C 32.63006,110.9956 19.638849,102.73425 11.993018,92.440368 -12.00765,60.127335 1.8208707,16.156025 40.252231,2.5829898 47.664277,-0.03476725 62.354836,-0.65887925 70.65,1.2915745 81.523021,3.8481638 89.480123,8.4160265 98.132049,17.067952 110.87095,29.806858 115.80334,42.507721 114.92124,60.3 114.15684,75.718467 109.10282,87.086658 98.07849,98.185005 84.117286,112.23996 65.032519,117.87209 45.45,113.71626 Z m 27.45,-48.680568 0,-21.364308 2.393741,3.364308 C 76.610298,48.886061 78.081244,50.4 78.56251,50.4 c 1.913768,0 6.923651,-3.796624 6.336366,-4.801869 -2.87526,-4.921535 -7.93524,-11.63984 -9.55891,-12.691687 -1.094481,-0.709028 -3.932619,-1.773374 -6.306972,-2.365213 -3.97558,-0.990968 -4.478424,-0.924427 -6.358006,0.841349 -2.689881,2.527012 -7.460095,2.527012 -10.149976,0 -1.879582,-1.765776 -2.382426,-1.832317 -6.358006,-0.841349 -2.374353,0.591839 -5.212491,1.656185 -6.306972,2.365213 -1.62367,1.051847 -6.68365,7.770152 -9.55891,12.691687 C 29.713839,46.603376 34.723722,50.4 36.63749,50.4 c 0.481266,0 1.952212,-1.513939 3.268769,-3.364308 L 42.3,43.671384 l 0,21.364308 0,21.364308 15.3,0 15.3,0 0,-21.364308 z"
           style="fill-opacity:0.94117647;fill:#006aff" />
        <path
           inkscape:connector-curvature="0"
           id="path4150"
           d="M 46.35,113.86814 C 25.479633,109.27369 9.9121347,95.379309 3.1863352,75.343504 -7.5638027,43.319399 12.243398,8.708814 45.562819,1.2959468 50.70091,0.15282988 54.722495,-0.1143865 61.121008,0.26217445 75.821196,1.1272999 87.47263,6.417396 98.139618,17.069718 130.65316,49.538569 114.09911,104.47496 68.994287,113.79162 60.885956,115.46645 53.720336,115.49065 46.35,113.86814 Z m 26.55,-48.832448 0,-21.364308 2.393741,3.364308 C 76.610298,48.886061 78.081244,50.4 78.56251,50.4 c 1.913768,0 6.923651,-3.796624 6.336366,-4.801869 -2.87526,-4.921535 -7.93524,-11.63984 -9.55891,-12.691687 -1.094481,-0.709028 -3.932619,-1.773374 -6.306972,-2.365213 -3.97558,-0.990968 -4.478424,-0.924427 -6.358006,0.841349 -2.689881,2.527012 -7.460095,2.527012 -10.149976,0 -1.879582,-1.765776 -2.382426,-1.832317 -6.358006,-0.841349 -2.374353,0.591839 -5.212491,1.656185 -6.306972,2.365213 -1.62367,1.051847 -6.68365,7.770152 -9.55891,12.691687 C 29.713839,46.603376 34.723722,50.4 36.63749,50.4 c 0.481266,0 1.952212,-1.513939 3.268769,-3.364308 L 42.3,43.671384 l 0,21.364308 0,21.364308 15.3,0 15.3,0 0,-21.364308 z"
           style="fill-opacity:0.94117647;fill:#006aff" />
        <path
           inkscape:connector-curvature="0"
           id="path4148"
           d="M 49.95,114.63138 C 27.433495,111.15141 8.8449296,94.751244 2.140038,72.45 -0.43525166,63.884289 -0.02905586,49.290181 3.0471962,39.856944 7.4280973,26.423038 16.204661,15.599073 29.003197,7.8459143 50.727549,-5.314367 79.641255,-1.4678359 98.154549,17.045455 123.87686,42.767777 119.7474,84.987212 89.53256,105.19613 80.901076,110.96922 70.978313,114.2061 60.425005,114.69125 56.148752,114.88783 51.435,114.86089 49.95,114.63138 Z m 22.95,-49.595688 0,-21.364308 2.393741,3.364308 C 76.610298,48.886061 78.081244,50.4 78.56251,50.4 c 1.913768,0 6.923651,-3.796624 6.336366,-4.801869 -2.87526,-4.921535 -7.93524,-11.63984 -9.55891,-12.691687 -1.094481,-0.709028 -3.932619,-1.773374 -6.306972,-2.365213 -3.97558,-0.990968 -4.478424,-0.924427 -6.358006,0.841349 -2.689881,2.527012 -7.460095,2.527012 -10.149976,0 -1.879582,-1.765776 -2.382426,-1.832317 -6.358006,-0.841349 -2.374353,0.591839 -5.212491,1.656185 -6.306972,2.365213 -1.62367,1.051847 -6.68365,7.770152 -9.55891,12.691687 C 29.713839,46.603376 34.723722,50.4 36.63749,50.4 c 0.481266,0 1.952212,-1.513939 3.268769,-3.364308 L 42.3,43.671384 l 0,21.364308 0,21.364308 15.3,0 15.3,0 0,-21.364308 z"
           style="fill-opacity:0.94117647;fill:#006aff" />
        <path
           inkscape:connector-curvature="0"
           id="path4146"
           d="M 50.85,114.61182 C 37.09556,112.42993 27.248714,107.43311 17.507805,97.692192 5.7215564,85.905946 0.60907271,73.7941 0.58464559,57.6 0.50743752,6.4144579 61.974858,-19.134234 98.154549,17.045455 133.40293,52.293837 110.33156,111.89235 60.365783,114.66229 56.617102,114.8701 52.335,114.84739 50.85,114.61182 Z m 22.05,-49.576128 0,-21.364308 2.393741,3.364308 C 76.610298,48.886061 78.081244,50.4 78.56251,50.4 c 1.913768,0 6.923651,-3.796624 6.336366,-4.801869 -2.87526,-4.921535 -7.93524,-11.63984 -9.55891,-12.691687 -1.094481,-0.709028 -3.932619,-1.773374 -6.306972,-2.365213 -3.97558,-0.990968 -4.478424,-0.924427 -6.358006,0.841349 -2.689881,2.527012 -7.460095,2.527012 -10.149976,0 -1.879582,-1.765776 -2.382426,-1.832317 -6.358006,-0.841349 -2.374353,0.591839 -5.212491,1.656185 -6.306972,2.365213 -1.62367,1.051847 -6.68365,7.770152 -9.55891,12.691687 C 29.713839,46.603376 34.723722,50.4 36.63749,50.4 c 0.481266,0 1.952212,-1.513939 3.268769,-3.364308 L 42.3,43.671384 l 0,21.364308 0,21.364308 15.3,0 15.3,0 0,-21.364308 z"
           style="fill-opacity:0.94117647;fill:#006aff" />
        <path
           inkscape:connector-curvature="0"
           id="path4144"
           d="M 49.95,114.29838 C 37.273873,112.53115 27.278664,107.42114 17.449957,97.682868 11.54059,91.827882 9.4578435,88.992655 6.5170512,82.8 1.9184761,73.116422 0.58458395,67.313074 0.62143138,57.15 0.75115404,21.370546 33.572469,-5.6692067 68.439531,1.2782398 102.06695,7.9786795 122.38241,41.647013 112.47068,74.25 104.42724,100.70753 77.265211,118.10651 49.95,114.29838 Z m 22.95,-49.262688 0,-21.364308 2.393741,3.364308 C 76.610298,48.886061 78.081244,50.4 78.56251,50.4 c 1.913768,0 6.923651,-3.796624 6.336366,-4.801869 -2.87526,-4.921535 -7.93524,-11.63984 -9.55891,-12.691687 -1.094481,-0.709028 -3.932619,-1.773374 -6.306972,-2.365213 -3.97558,-0.990968 -4.478424,-0.924427 -6.358006,0.841349 -2.689881,2.527012 -7.460095,2.527012 -10.149976,0 -1.879582,-1.765776 -2.382426,-1.832317 -6.358006,-0.841349 -2.374353,0.591839 -5.212491,1.656185 -6.306972,2.365213 -1.62367,1.051847 -6.68365,7.770152 -9.55891,12.691687 C 29.713839,46.603376 34.723722,50.4 36.63749,50.4 c 0.481266,0 1.952212,-1.513939 3.268769,-3.364308 L 42.3,43.671384 l 0,21.364308 0,21.364308 15.3,0 15.3,0 0,-21.364308 z"
           style="fill-opacity:0.94117647;fill:#006aff" />
        <path
           inkscape:connector-curvature="0"
           id="path4142"
           d="M 51.083656,114.2319 C 37.770243,112.73628 27.630634,107.73573 17.485022,97.662069 6.2440055,86.500775 0.92939526,74.060796 0.75419428,58.5 0.64564996,48.859437 2.0942965,41.766624 5.809171,33.75 13.06408,18.094051 25.681428,7.3108417 42.803752,2.1331859 51.300294,-0.43610164 65.920984,-0.02541493 75.343056,3.0471962 92.828907,8.7494689 106.45919,22.410745 112.1915,39.97943 c 1.9525,5.984157 2.38283,9.022219 2.4321,17.17057 0.0673,11.129131 -1.23856,16.750321 -6.16299,26.528927 C 97.91037,104.62891 74.860321,116.90295 51.083656,114.2319 Z M 72.9,65.035692 l 0,-21.364308 2.393741,3.364308 C 76.610298,48.886061 78.081244,50.4 78.56251,50.4 c 1.913768,0 6.923651,-3.796624 6.336366,-4.801869 -2.87526,-4.921535 -7.93524,-11.63984 -9.55891,-12.691687 -1.094481,-0.709028 -3.932619,-1.773374 -6.306972,-2.365213 -3.97558,-0.990968 -4.478424,-0.924427 -6.358006,0.841349 -2.689881,2.527012 -7.460095,2.527012 -10.149976,0 -1.879582,-1.765776 -2.382426,-1.832317 -6.358006,-0.841349 -2.374353,0.591839 -5.212491,1.656185 -6.306972,2.365213 -1.62367,1.051847 -6.68365,7.770152 -9.55891,12.691687 C 29.713839,46.603376 34.723722,50.4 36.63749,50.4 c 0.481266,0 1.952212,-1.513939 3.268769,-3.364308 L 42.3,43.671384 l 0,21.364308 0,21.364308 15.3,0 15.3,0 0,-21.364308 z"
           style="fill-opacity:0.94117647;fill:#006aff" />
        <path
           inkscape:connector-curvature="0"
           id="path4140"
           d="M 42.493124,112.55435 C 32.410835,109.67163 25.328735,105.44759 17.521284,97.66017 6.0457673,86.214095 0.9,73.760568 0.9,57.434179 0.9,41.150999 5.9658873,28.941336 17.465774,17.507805 29.331677,5.71037 41.429777,0.6090367 57.6,0.58464559 89.812658,0.53605615 114.66394,25.387342 114.61535,57.6 114.59096,73.770223 109.48963,85.868323 97.692192,97.734222 89.814336,105.6578 81.753162,110.352 71.585911,112.93647 c -7.373992,1.87444 -21.866243,1.68409 -29.092787,-0.38212 z M 72.9,65.035692 l 0,-21.364308 2.393741,3.364308 C 76.610298,48.886061 78.081244,50.4 78.56251,50.4 c 1.913768,0 6.923651,-3.796624 6.336366,-4.801869 -2.87526,-4.921535 -7.93524,-11.63984 -9.55891,-12.691687 -1.094481,-0.709028 -3.932619,-1.773374 -6.306972,-2.365213 -3.97558,-0.990968 -4.478424,-0.924427 -6.358006,0.841349 -2.689881,2.527012 -7.460095,2.527012 -10.149976,0 -1.879582,-1.765776 -2.382426,-1.832317 -6.358006,-0.841349 -2.374353,0.591839 -5.212491,1.656185 -6.306972,2.365213 -1.62367,1.051847 -6.68365,7.770152 -9.55891,12.691687 C 29.713839,46.603376 34.723722,50.4 36.63749,50.4 c 0.481266,0 1.952212,-1.513939 3.268769,-3.364308 L 42.3,43.671384 l 0,21.364308 0,21.364308 15.3,0 15.3,0 0,-21.364308 z"
           style="fill-opacity:0.94117647;fill:#006aff" />
      </g>
    </a>
  </g>
</svg>
